<svg xmlns="http://www.w3.org/2000/svg" viewBox="0 0 193.82 206.86"><defs><style>.cls-1{fill:#f26522;}</style></defs><g id="Layer_2" data-name="Layer 2"><path class="cls-1" d="M97.87,10.51l.7-1.1,0-.06-1.48.36.22-.59,1.24.21-1.24-.21.37-1,1.77-.06.43,1h0l.26.58-1.41-.25.64,1.11-.72-1Zm.7-1.17h0Z" transform="translate(0 -3.25)"/><path class="cls-1" d="M84.91,51.87" transform="translate(0 -3.25)"/><path class="cls-1" d="M1.51,85.76c2-.82,3.94-1.58,5.93-2.23s4-1.25,6.05-1.82a62.23,62.23,0,0,1,12.72-2h.28A102,102,0,0,1,42,81.35c5,.86,10.12,1.87,15.2,1.44l.2,0h0c2.83.22,5.44.61,7.87.19a7.15,7.15,0,0,0,5.43-3.69l-.09.15c2.76-6.16,4.8-12.59,7.28-18.75s4.39-12.53,6.56-18.79L91.12,23c2.26-6.33,4.45-12.72,7.14-19.11a.45.45,0,0,1,.86.14A107,107,0,0,1,98,24.7,120.53,120.53,0,0,1,93.3,44.86a139.69,139.69,0,0,1-8.22,19c-3.07,6.2-7.19,11.85-11.22,17.4l-.1.15a12.46,12.46,0,0,1-3.7,3,13.51,13.51,0,0,1-4.4,1.26c-2.92.31-5.71-.08-8.24.09h.22a100.74,100.74,0,0,1-16,2.41c-5.38.37-10.61-.33-15.7-1h.29c-3.92-.17-7.91-.2-12-.13-2.06,0-4.12,0-6.22,0a61.69,61.69,0,0,1-6.34-.41.45.45,0,0,1-.4-.5A.46.46,0,0,1,1.51,85.76Z" transform="translate(0 -3.25)"/><path class="cls-1" d="M46,199.5a4.06,4.06,0,0,1-.23,2.77,11.77,11.77,0,0,1-1.33,2.27c-1,1.32-2.23,2.57-3.17,3.57a2.15,2.15,0,0,1-3.6-2.19l.18-.53c.71-2,1.46-4,2.28-5.94a3,3,0,0,1,5.54,2l-.21.67a28.91,28.91,0,0,1-2.69,6.23l-5.45-4.42c-.32.33-.07,0,0-.16l.42-.76a9.6,9.6,0,0,1,1.44-2l-.88,1.41c1.47-5,2.44-10.16,4-15.37s3.21-10.57,4.42-16,2.14-10.88,3.5-16.4c.3-1.39.68-2.77,1.11-4.15a40.53,40.53,0,0,1,1.39-4.11,45.14,45.14,0,0,1,3.9-7.83,94.22,94.22,0,0,0,7.56-13.7c1.76-4.56,2.69-8.81,1.5-12.63a7.11,7.11,0,0,0-.52-1.44,6.82,6.82,0,0,0-.67-1.46l-.85-1.46a13.25,13.25,0,0,0-.9-1.19A14.18,14.18,0,0,0,57.38,103c-4.55-2-10.28-3-15.44-5.53a.44.44,0,0,1-.2-.59.46.46,0,0,1,.41-.25c5.55.06,11-.65,17,.45a19.48,19.48,0,0,1,9,4A20.54,20.54,0,0,1,70,102.91l1.52,1.91a13.06,13.06,0,0,1,1.37,2.12A11.87,11.87,0,0,1,74,109.26a19.61,19.61,0,0,1,1.28,10.2,27.94,27.94,0,0,1-2.85,9.14,77.65,77.65,0,0,1-9.79,14.29,75.93,75.93,0,0,0-4.79,6.18,45.27,45.27,0,0,0-4,6.87,49.17,49.17,0,0,0-4.27,15.61c-.61,5.44-.26,11-.59,16.63a52.23,52.23,0,0,1-3.7,16.67l-.57,1.43a.15.15,0,0,1-.21.09.14.14,0,0,1-.1-.11,3.25,3.25,0,0,0-.6.69l-.49.67a9.18,9.18,0,0,1-1,1.22l-.12.13a3.51,3.51,0,0,1-5.33-4.55,39.31,39.31,0,0,0,3-4.67l5.33,2.67c-1.09,1.68-2.26,3.33-3.47,5l-3.42-2.72c1.46-.92,2.78-1.46,4-2.27s2.41-1.53,2.72-2.78l0-.08a.44.44,0,0,1,.53-.33A.45.45,0,0,1,46,199.5Z" transform="translate(0 -3.25)"/><path class="cls-1" d="M97.4,132.32c-4.26-.65-6.45,1.78-8.93,4.46s-4.8,6.14-7.39,9.15-5.82,5.67-8.81,8.56A36.13,36.13,0,0,0,65,164.3a78.92,78.92,0,0,0-4.56,11.43c-1.33,3.86-3,7.54-4.34,11.33A94,94,0,0,1,51.3,198.6c-2.1,3.89-5.11,8-9.33,10.5l-.61.36a3.36,3.36,0,0,1-4.36-5,10.52,10.52,0,0,1,3.45-2.78l.88-.45a2.85,2.85,0,0,1,3,4.82c-1,.73-1.93,1.45-2.91,2.1l-.67.44a2.25,2.25,0,0,1-3.1-3.13c1.43-2.13,3.09-4.74,5.6-6.21a.44.44,0,0,1,.62.16.46.46,0,0,1,0,.41v0c-1.08,2.4-1.28,4.81-1.86,7.46l-3.77-2.69c.52-.86,1.08-1.65,1.62-2.43l3.89,4.37a6.35,6.35,0,0,0-1.08,1.75l-5-4.63c4.63-5,6.16-12.55,10.41-20.18a86.83,86.83,0,0,1,6.53-10.82c2.54-3.4,5.35-6.57,7.79-9.94a61.92,61.92,0,0,0,6.43-10.68c1.82-3.8,3.56-7.74,6.18-11.06a46.75,46.75,0,0,1,9.26-9,15.72,15.72,0,0,1,6.73-2.78,7.6,7.6,0,0,1,6.77,2.37.45.45,0,0,1-.06.65A.47.47,0,0,1,97.4,132.32Z" transform="translate(0 -3.25)"/><path class="cls-1" d="M110.29,104.15c7.39,5.36,13.11,12.68,17.66,20.5a71.27,71.27,0,0,1,5.73,12.27A104.67,104.67,0,0,1,137,150c.93,4.38,1.9,8.72,3.16,13a55.63,55.63,0,0,0,4.79,12.08,29.75,29.75,0,0,0,3.63,5c1.3,1.43,2.92,2.7,4.6,4.33a22.58,22.58,0,0,1,4.78,6.08,12,12,0,0,1,1.29,4.69,11.75,11.75,0,0,1-.92,5.12,4,4,0,0,1-5.14,2.26l-.08,0-.43-.18c-5.72-2.41-9.83-7.3-12.29-12a65.21,65.21,0,0,1-3.14-7l-2.78-6.54c-2-4.32-4-8.59-6.29-12.8s-4.79-8.31-7.53-12.46a.45.45,0,0,1,.12-.62.44.44,0,0,1,.48,0,55,55,0,0,1,11.47,9.85,80.12,80.12,0,0,1,9,12.21c2.72,4.18,4.86,9.17,6.85,12.9s4.44,7,7.7,8.75l-5.64,2a3.17,3.17,0,0,0,.15-3A19.89,19.89,0,0,0,148,189a52.37,52.37,0,0,1-4-5.74,36.31,36.31,0,0,1-2.81-6.55c-1.44-4.42-2.34-8.78-3.54-13a74.85,74.85,0,0,0-4.8-12.27l-6-11.65c-1.94-3.86-3.62-7.81-5.45-11.7-3.6-7.82-7.57-15.38-11.72-23.37a.44.44,0,0,1,.19-.6A.46.46,0,0,1,110.29,104.15Z" transform="translate(0 -3.25)"/><path class="cls-1" d="M193.71,95.06a26.48,26.48,0,0,1-4.15,3.79,39.47,39.47,0,0,1-4.76,2.75,28.65,28.65,0,0,1-10.48,2.7,52.83,52.83,0,0,1-5.47-.45,32.83,32.83,0,0,0-5.35-.48A40.36,40.36,0,0,0,153,104.75c-1.75.37-3.5.83-5.26,1.09s-3.51.39-5.27.52a77.4,77.4,0,0,1-10.43.19,81.94,81.94,0,0,1-20.6-4.33.47.47,0,0,1-.28-.6.47.47,0,0,1,.25-.27c6.85-3.08,14-3.89,21-4.07a83.19,83.19,0,0,1,10.34.87A72.4,72.4,0,0,1,153,100a41.84,41.84,0,0,0,5.16.8,26.76,26.76,0,0,0,5.14-.23,28.5,28.5,0,0,0,5-1.47c1.62-.71,3.22-1.39,4.82-1.94a22.57,22.57,0,0,1,4.82-1.22c1.61-.36,3.25-.6,4.92-.81a39.27,39.27,0,0,1,5.07-.6,28.92,28.92,0,0,1,5.43-.26h0a.49.49,0,0,1,.45.5A.57.57,0,0,1,193.71,95.06Z" transform="translate(0 -3.25)"/><path class="cls-1" d="M98.19,5l-.09-1a.63.63,0,0,1,.57-.69.64.64,0,0,1,.67.47L99.4,4a150.38,150.38,0,0,1,3.5,19.4,182.45,182.45,0,0,1,1.39,19.69c-.16,7-2.44,13.37-3.67,19.69s-1.25,12.9,1.23,18.63l-.08-.18a4,4,0,0,0,3.24,1l-.65.1A96.25,96.25,0,0,1,115.25,78a41.56,41.56,0,0,1,12.07-1.78,39.68,39.68,0,0,1,6.29.5,24.61,24.61,0,0,1,3,.65l2.84.73c3.71,1,7.33,2,10.9,3.15,7.12,2.27,14,4.68,21.1,6.42,3.53.83,7.09,1.51,10.73,2a101.33,101.33,0,0,0,11.15.62.45.45,0,0,1,.46.43.49.49,0,0,1-.27.42c-7.14,3.09-15.27,3.92-23.11,3.41a107.26,107.26,0,0,1-22.79-4.4c-3.64-1.06-7.21-2.27-10.73-3.48a38.43,38.43,0,0,0-10-2.45c-6.71-.56-14,.38-21.29,2l-.42.09a.65.65,0,0,1-.24,0,8.93,8.93,0,0,1-3.39-1,5.94,5.94,0,0,1-2.73-2.69l0-.1,0-.09C96.91,75.8,97,69,97,62.41s0-13.25-.34-19.27c-.44-6.26-.43-12.92-.28-19.39A155.46,155.46,0,0,1,98.09,4.07l1.31,0-.35,1a.44.44,0,0,1-.57.26A.44.44,0,0,1,98.19,5Z" transform="translate(0 -3.25)"/><path class="cls-1" d="M54.9,100.46c-9.26-1.81-18.34-4.27-27.43-6.62-4.54-1.16-9.08-2.38-13.69-3.18S4.44,89.39,0,87.8c4.49,1.44,9.2,1.77,13.85,2.41S23.09,92,27.67,93.06c9.14,2.15,18.26,4.39,27.49,6a.73.73,0,0,1-.24,1.43Z" transform="translate(0 -3.25)"/><ellipse class="cls-1" cx="96.33" cy="39.52" rx="2.73" ry="3.71"/><path class="cls-1" d="M87.59,61.13A4.13,4.13,0,1,1,91.72,57,4.13,4.13,0,0,1,87.59,61.13Zm0-5.36A1.24,1.24,0,1,0,88.82,57,1.25,1.25,0,0,0,87.59,55.77Z" transform="translate(0 -3.25)"/><path class="cls-1" d="M93.26,74a3.24,3.24,0,1,1,3.24-3.24A3.25,3.25,0,0,1,93.26,74Zm0-3.59a.35.35,0,0,0-.35.35c0,.38.69.38.69,0A.35.35,0,0,0,93.26,70.38Z" transform="translate(0 -3.25)"/><path class="cls-1" d="M95,58.45a2.79,2.79,0,1,1,2.79-2.79A2.79,2.79,0,0,1,95,58.45Zm0-2.89.11.1A.1.1,0,0,0,95,55.56Z" transform="translate(0 -3.25)"/><ellipse class="cls-1" cx="72.21" cy="88.91" rx="2.78" ry="3.95"/><path class="cls-1" d="M53,95.22a3.51,3.51,0,1,1,3.5-3.51A3.51,3.51,0,0,1,53,95.22Zm0-4.12a.61.61,0,0,0-.62.61c0,.68,1.23.68,1.23,0A.61.61,0,0,0,53,91.1Z" transform="translate(0 -3.25)"/><path class="cls-1" d="M98.37,105.88a5.17,5.17,0,1,1,4.77-5.15A5,5,0,0,1,98.37,105.88Zm0-7.41a2.3,2.3,0,1,0,1.88,2.26A2.09,2.09,0,0,0,98.37,98.47Z" transform="translate(0 -3.25)"/><path class="cls-1" d="M86.86,93.41a3.53,3.53,0,1,1,3.53-3.53A3.53,3.53,0,0,1,86.86,93.41Zm0-4.16a.63.63,0,0,0-.63.63c0,.7,1.27.7,1.27,0A.64.64,0,0,0,86.86,89.25Z" transform="translate(0 -3.25)"/><path class="cls-1" d="M82.61,118.46c-2,0-3.62-2.16-3.62-4.9s1.59-4.9,3.62-4.9,3.62,2.15,3.62,4.9S84.64,118.46,82.61,118.46Zm0-6.91a2.49,2.49,0,0,0-.71,2,2.37,2.37,0,0,0,.73,2,2.41,2.41,0,0,0,.72-2A2.36,2.36,0,0,0,82.6,111.55Z" transform="translate(0 -3.25)"/><path class="cls-1" d="M72.21,135A2.78,2.78,0,1,1,75,132.23,2.79,2.79,0,0,1,72.21,135Zm0-2.9.12.12A.13.13,0,0,0,72.21,132.11Z" transform="translate(0 -3.25)"/><path class="cls-1" d="M61.76,155.2a2.6,2.6,0,1,1,2.6-2.6A2.61,2.61,0,0,1,61.76,155.2Zm0-2.9a.3.3,0,0,0-.29.3c0,.33.59.33.59,0A.31.31,0,0,0,61.76,152.3Z" transform="translate(0 -3.25)"/><path class="cls-1" d="M116.26,132.35a2.29,2.29,0,1,1,2.28-2.29A2.29,2.29,0,0,1,116.26,132.35Zm0-2.89a.6.6,0,0,0-.61.6c0,.68,1.22.68,1.22,0A.6.6,0,0,0,116.26,129.46Z" transform="translate(0 -3.25)"/><path class="cls-1" d="M141.67,97.74c-2.53,0-4.5-1.54-4.5-3.52s2-3.51,4.5-3.51,4.5,1.54,4.5,3.51S144.19,97.74,141.67,97.74Zm-1.61-3.52a2.36,2.36,0,0,0,3.21,0,2.39,2.39,0,0,0-3.21,0Z" transform="translate(0 -3.25)"/><path class="cls-1" d="M115.22,91.33a2.49,2.49,0,1,1,2.49-2.49A2.5,2.5,0,0,1,115.22,91.33Zm0-2.89a.41.41,0,0,0-.41.4c0,.45.82.45.82,0A.41.41,0,0,0,115.22,88.44Z" transform="translate(0 -3.25)"/><path class="cls-1" d="M164.26,98.47a2.63,2.63,0,1,1,2.62-2.63A2.62,2.62,0,0,1,164.26,98.47Zm0-2.9a.27.27,0,0,0-.27.27c0,.29.54.3.54,0A.27.27,0,0,0,164.26,95.57Z" transform="translate(0 -3.25)"/><path class="cls-1" d="M125.63,95.67a2.48,2.48,0,1,1,2.47-2.48A2.49,2.49,0,0,1,125.63,95.67Zm0-2.89a.41.41,0,0,0-.42.41c0,.46.83.46.83,0A.41.41,0,0,0,125.63,92.78Z" transform="translate(0 -3.25)"/><path class="cls-1" d="M103.44,121.59a2.35,2.35,0,1,1,2.35-2.35A2.35,2.35,0,0,1,103.44,121.59Zm0-2.89a.54.54,0,0,0-.54.54c0,.6,1.09.6,1.09,0A.55.55,0,0,0,103.44,118.7Z" transform="translate(0 -3.25)"/><path class="cls-1" d="M36.1,91.33a2,2,0,1,1,2-2A2,2,0,0,1,36.1,91.33Zm0-2.89a.93.93,0,1,0,.92.92A.93.93,0,0,0,36.1,88.44Z" transform="translate(0 -3.25)"/><path class="cls-1" d="M55.82,171a1.9,1.9,0,1,1,1.9-1.9A1.9,1.9,0,0,1,55.82,171Zm0-2.89a1,1,0,1,0,1,1A1,1,0,0,0,55.82,168.11Z" transform="translate(0 -3.25)"/><path class="cls-1" d="M131.36,160.46A2.66,2.66,0,1,1,134,157.8,2.67,2.67,0,0,1,131.36,160.46Zm0-2.9a.24.24,0,0,0-.24.24c0,.26.47.26.47,0A.23.23,0,0,0,131.36,157.56Z" transform="translate(0 -3.25)"/><ellipse class="cls-1" cx="121.48" cy="134.74" rx="2.38" ry="3.31"/><path class="cls-1" d="M81.53,81.85a2.54,2.54,0,1,1,2.53-2.54A2.54,2.54,0,0,1,81.53,81.85Zm0-2.9a.36.36,0,0,0-.36.36c0,.41.72.41.72,0A.36.36,0,0,0,81.53,79Z" transform="translate(0 -3.25)"/></g></svg>