<svg xmlns="http://www.w3.org/2000/svg" viewBox="0 0 715.83 259.92"><defs><style>.cls-1{fill:#fff;}.cls-2{fill:#f26522;}</style></defs><g id="Layer_2" data-name="Layer 2"><path class="cls-1" d="M-213.14,347.83l.6-45.65a14.7,14.7,0,0,1,4.6-10.7,14.53,14.53,0,0,1,10.82-4.31l60.86.8-.8,60.86-15.22-.2.2-15.21-45.64-.61L-167.09,318l15.21.2.2-15.22-45.64-.6-.6,45.65Z" transform="translate(312.92 -239.51)"/><path class="cls-1" d="M-133.56,349l-.46-60.87,60.86-.46a14.56,14.56,0,0,1,10.79,4.44,14.43,14.43,0,0,1,4.54,10.66l.17,22.83-15.21.11,15.27,7.5.12,15.21-61.1-30,.23,30.43ZM-73,310.45l-.05-7.61-45.65.34,0,7.61Z" transform="translate(312.92 -239.51)"/><path class="cls-1" d="M-308.82,409.27l.15-41.08a13.2,13.2,0,0,1,4-9.67,13.07,13.07,0,0,1,9.7-4l54.78.2-27.44,13.59-27.39-.1,0,6.85,41.08.15-.05,13.69-41.08-.15-.08,20.54Z" transform="translate(312.92 -239.51)"/><path class="cls-1" d="M-231.1,382.17l.1-27.39,13.69.05-.2,54.78Z" transform="translate(312.92 -239.51)"/><path class="cls-1" d="M-208.36,409.64l27.44-13.6,27.39.1,0-6.84-54.78-.2.08-20.54a13.16,13.16,0,0,1,4.05-9.67,13.08,13.08,0,0,1,9.69-4l54.78.2-27.44,13.6-27.39-.1,0,6.84,54.78.2-.08,20.54a13.14,13.14,0,0,1-4.1,9.72,13.12,13.12,0,0,1-9.64,3.93Z" transform="translate(312.92 -239.51)"/><path class="cls-1" d="M-130.54,355.14l13.69.05-.07,20.54,44.51.17,10.34-20.51-.2,54.78L-76,410.12l.07-20.54-44.5-.16-10.35,20.5Z" transform="translate(312.92 -239.51)"/><path class="cls-1" d="M-247.33,282.45l15.94.25.67-43.19,15.94.24-1.67,108-15.94-.25.67-43.19-47.82-.74Z" transform="translate(312.92 -239.51)"/><path class="cls-1" d="M-312.92,347.83-292,332.76l20.79.15.05-7.61-41.57-.29.17-22.83a18.58,18.58,0,0,1,3.12-10.73q3-4.44,7.38-4.41l41.56.3-20.89,15.06-20.78-.14-.06,7.6,41.57.3-.16,22.83A18.58,18.58,0,0,1-264,343.78c-2,2.92-4.47,4.37-7.34,4.35Z" transform="translate(312.92 -239.51)"/><path class="cls-2" d="M307,299.83l.7-1.1,0-.06-1.48.37.22-.6,1.24.21-1.24-.21.37-1,1.77-.06.43,1h0l.26.58-1.41-.25.64,1.11-.72-1Zm.7-1.17h0Z" transform="translate(312.92 -239.51)"/><path class="cls-2" d="M294,341.19" transform="translate(312.92 -239.51)"/><path class="cls-2" d="M210.6,375.08c2-.82,3.94-1.58,5.93-2.23s4-1.25,6.05-1.82a63.64,63.64,0,0,1,12.72-2h.28a102,102,0,0,1,15.5,1.59c5,.86,10.12,1.87,15.2,1.44l.2,0h0c2.83.22,5.44.61,7.87.19a7.15,7.15,0,0,0,5.43-3.69l-.1.15c2.77-6.16,4.81-12.59,7.29-18.75s4.39-12.53,6.56-18.79l6.64-18.86c2.26-6.33,4.46-12.72,7.15-19.11a.44.44,0,0,1,.85.15A105.56,105.56,0,0,1,307.05,314a119.41,119.41,0,0,1-4.66,20.15,139.16,139.16,0,0,1-8.22,19c-3.07,6.2-7.19,11.85-11.22,17.4l-.1.15a12.46,12.46,0,0,1-3.7,2.95,13.27,13.27,0,0,1-4.4,1.26c-2.92.31-5.71-.08-8.24.09h.22a100.74,100.74,0,0,1-16,2.41c-5.38.37-10.61-.32-15.7-.95h.29c-3.92-.16-7.92-.19-12-.13-2.06,0-4.12,0-6.22,0a62.06,62.06,0,0,1-6.35-.41.45.45,0,0,1-.39-.5A.46.46,0,0,1,210.6,375.08Z" transform="translate(312.92 -239.51)"/><path class="cls-2" d="M255.09,488.82a4.06,4.06,0,0,1-.23,2.77,11.77,11.77,0,0,1-1.33,2.27c-1,1.32-2.23,2.57-3.17,3.57a2.16,2.16,0,0,1-3.61-2.19l.19-.53c.71-2,1.46-4,2.28-5.93a2.95,2.95,0,0,1,5.54,2l-.21.67a28.91,28.91,0,0,1-2.69,6.23l-5.45-4.42c-.32.34-.07,0,0-.16l.42-.76a9.6,9.6,0,0,1,1.44-2l-.88,1.41c1.47-5,2.44-10.16,4-15.37s3.21-10.57,4.42-16,2.14-10.88,3.49-16.4c.31-1.39.69-2.77,1.12-4.15a41.39,41.39,0,0,1,1.39-4.11,32.79,32.79,0,0,1,1.78-4.05,30.8,30.8,0,0,1,2.12-3.77,94.3,94.3,0,0,0,7.56-13.71c1.76-4.56,2.69-8.81,1.5-12.63a7.33,7.33,0,0,0-.52-1.44,6.82,6.82,0,0,0-.67-1.46l-.85-1.45a12.11,12.11,0,0,0-.9-1.2,14.15,14.15,0,0,0-5.4-3.73c-4.54-2-10.27-3-15.43-5.53a.44.44,0,0,1-.2-.59.46.46,0,0,1,.41-.25c5.55.06,10.95-.65,17,.45a19.48,19.48,0,0,1,9,4,20.54,20.54,0,0,1,1.88,1.85l1.52,1.91a13.51,13.51,0,0,1,1.37,2.12,11.87,11.87,0,0,1,1.13,2.32,19.63,19.63,0,0,1,1.28,10.21,28.09,28.09,0,0,1-2.85,9.14,78,78,0,0,1-9.79,14.29,77.57,77.57,0,0,0-4.79,6.17,45.76,45.76,0,0,0-4,6.87,49.17,49.17,0,0,0-4.27,15.61c-.62,5.44-.26,11-.59,16.63a52.23,52.23,0,0,1-3.7,16.67l-.57,1.43a.16.16,0,0,1-.21.1.17.17,0,0,1-.1-.12,3.25,3.25,0,0,0-.6.69l-.49.67a9.18,9.18,0,0,1-1,1.22l-.12.13a3.51,3.51,0,0,1-5.33-4.55,38.51,38.51,0,0,0,3-4.67l5.33,2.68c-1.09,1.67-2.26,3.32-3.47,5L247.51,494c1.46-.93,2.78-1.47,4-2.27s2.41-1.54,2.72-2.79l0-.08a.43.43,0,0,1,.53-.32A.42.42,0,0,1,255.09,488.82Z" transform="translate(312.92 -239.51)"/><path class="cls-2" d="M306.49,421.64c-4.26-.65-6.45,1.78-8.93,4.46s-4.8,6.14-7.39,9.15-5.82,5.68-8.81,8.56a36.13,36.13,0,0,0-7.32,9.81,78.92,78.92,0,0,0-4.56,11.43c-1.33,3.86-3,7.54-4.34,11.33a94,94,0,0,1-4.75,11.54c-2.1,3.89-5.11,7.95-9.34,10.5l-.6.36a3.36,3.36,0,0,1-4.36-5,10.52,10.52,0,0,1,3.45-2.78l.88-.45a2.85,2.85,0,0,1,3,4.82c-1,.73-1.93,1.45-2.91,2.11l-.67.43a2.25,2.25,0,0,1-3.1-3.13c1.43-2.12,3.09-4.74,5.6-6.21a.45.45,0,0,1,.62.16.46.46,0,0,1,0,.41v0c-1.08,2.4-1.28,4.81-1.86,7.46l-3.78-2.69c.53-.86,1.09-1.65,1.63-2.43l3.89,4.37a6.25,6.25,0,0,0-1.08,1.76l-5-4.63c4.63-5,6.16-12.56,10.41-20.18A86.22,86.22,0,0,1,263.76,462c2.54-3.4,5.35-6.57,7.79-9.94A62.17,62.17,0,0,0,278,441.38c1.82-3.8,3.56-7.74,6.17-11.05a46.84,46.84,0,0,1,9.27-9,15.72,15.72,0,0,1,6.73-2.78,7.6,7.6,0,0,1,6.77,2.37.45.45,0,0,1-.06.65A.47.47,0,0,1,306.49,421.64Z" transform="translate(312.92 -239.51)"/><path class="cls-2" d="M319.38,393.47c7.39,5.36,13.11,12.68,17.66,20.5a71.27,71.27,0,0,1,5.73,12.27,104.67,104.67,0,0,1,3.31,13.1c.93,4.39,1.9,8.72,3.16,13A55.63,55.63,0,0,0,354,464.38a29.75,29.75,0,0,0,3.63,5c1.3,1.43,2.92,2.71,4.6,4.33a22.48,22.48,0,0,1,4.78,6.09,11.89,11.89,0,0,1,1.29,4.69,11.73,11.73,0,0,1-.92,5.11,4,4,0,0,1-5.14,2.26l-.08,0-.43-.18c-5.72-2.41-9.83-7.3-12.29-12a66,66,0,0,1-3.14-7l-2.78-6.55c-2-4.31-4-8.59-6.29-12.8s-4.79-8.31-7.53-12.46a.45.45,0,0,1,.12-.62.46.46,0,0,1,.48,0,55,55,0,0,1,11.47,9.85,80.12,80.12,0,0,1,9,12.21c2.72,4.19,4.86,9.18,6.85,12.9s4.44,7,7.7,8.76l-5.64,2a3.17,3.17,0,0,0,.15-3,20.1,20.1,0,0,0-2.83-4.67,52.37,52.37,0,0,1-4-5.74,36.31,36.31,0,0,1-2.81-6.55c-1.44-4.41-2.34-8.78-3.54-13a74.85,74.85,0,0,0-4.8-12.27l-6-11.65c-1.94-3.86-3.62-7.81-5.45-11.7-3.6-7.82-7.57-15.37-11.72-23.37a.44.44,0,0,1,.19-.6A.46.46,0,0,1,319.38,393.47Z" transform="translate(312.92 -239.51)"/><path class="cls-2" d="M402.8,384.38a26.48,26.48,0,0,1-4.15,3.79,37,37,0,0,1-4.76,2.75,28.65,28.65,0,0,1-10.48,2.7,52.83,52.83,0,0,1-5.47-.45,32.83,32.83,0,0,0-5.35-.48,40.49,40.49,0,0,0-10.47,1.38c-1.74.37-3.49.83-5.26,1.1s-3.5.38-5.26.51a77.4,77.4,0,0,1-10.43.19,81.94,81.94,0,0,1-20.6-4.33.47.47,0,0,1-.28-.6.47.47,0,0,1,.25-.27c6.85-3.08,14-3.89,20.95-4.07a83.19,83.19,0,0,1,10.34.87,72.4,72.4,0,0,1,10.25,1.85,41.55,41.55,0,0,0,5.16.8,21.45,21.45,0,0,0,10.13-1.7c1.62-.71,3.22-1.39,4.82-1.94a22.57,22.57,0,0,1,4.82-1.22c1.61-.36,3.25-.6,4.92-.81a39.06,39.06,0,0,1,5.07-.6,28.92,28.92,0,0,1,5.43-.26h0a.49.49,0,0,1,.45.5A.57.57,0,0,1,402.8,384.38Z" transform="translate(312.92 -239.51)"/><path class="cls-2" d="M307.28,294.29l-.09-1a.63.63,0,0,1,.57-.69.65.65,0,0,1,.67.47l.06.25a150.38,150.38,0,0,1,3.5,19.4,182.45,182.45,0,0,1,1.39,19.69c-.16,7.05-2.45,13.37-3.67,19.69s-1.25,12.9,1.23,18.63l-.08-.18a4,4,0,0,0,3.24,1l-.66.11a93.47,93.47,0,0,1,10.9-4.27,41.57,41.57,0,0,1,12.07-1.79,38.56,38.56,0,0,1,6.29.51,23,23,0,0,1,3,.64l2.84.73c3.71.95,7.33,2,10.9,3.15,7.12,2.28,14,4.68,21.1,6.42,3.53.84,7.09,1.51,10.73,2a103.88,103.88,0,0,0,11.15.61.45.45,0,0,1,.46.43.48.48,0,0,1-.27.42c-7.14,3.09-15.27,3.93-23.11,3.41a107.26,107.26,0,0,1-22.79-4.4c-3.64-1.06-7.21-2.27-10.73-3.48a38,38,0,0,0-10-2.44c-6.71-.57-14,.37-21.29,2l-.42.09a.65.65,0,0,1-.24,0,8.93,8.93,0,0,1-3.39-1A5.94,5.94,0,0,1,308,372l0-.1,0-.09c-1.9-6.65-1.79-13.41-1.85-20s0-13.24-.34-19.27c-.44-6.26-.43-12.92-.28-19.39a155.15,155.15,0,0,1,1.75-19.67l1.31,0-.35,1a.44.44,0,0,1-.57.26A.43.43,0,0,1,307.28,294.29Z" transform="translate(312.92 -239.51)"/><path class="cls-2" d="M264,389.78c-9.26-1.81-18.34-4.26-27.43-6.62-4.54-1.16-9.08-2.38-13.69-3.18s-9.34-1.27-13.78-2.86c4.49,1.44,9.2,1.77,13.85,2.41s9.24,1.81,13.82,2.85c9.14,2.15,18.26,4.39,27.49,6a.73.73,0,0,1-.24,1.43Z" transform="translate(312.92 -239.51)"/><ellipse class="cls-2" cx="618.34" cy="92.58" rx="2.73" ry="3.71"/><path class="cls-2" d="M296.68,350.45a4.13,4.13,0,1,1,4.13-4.12A4.13,4.13,0,0,1,296.68,350.45Zm0-5.36a1.24,1.24,0,1,0,0,2.47,1.24,1.24,0,0,0,0-2.47Z" transform="translate(312.92 -239.51)"/><path class="cls-2" d="M302.35,363.29a3.24,3.24,0,1,1,3.24-3.24A3.25,3.25,0,0,1,302.35,363.29Zm0-3.59a.35.35,0,0,0-.35.35c0,.38.69.38.69,0A.35.35,0,0,0,302.35,359.7Z" transform="translate(312.92 -239.51)"/><path class="cls-2" d="M304.08,347.77a2.79,2.79,0,1,1,2.79-2.78A2.8,2.8,0,0,1,304.08,347.77Zm0-2.89.11.11A.11.11,0,0,0,304.08,344.88Z" transform="translate(312.92 -239.51)"/><ellipse class="cls-2" cx="594.22" cy="141.97" rx="2.78" ry="3.95"/><path class="cls-2" d="M262.06,384.54a3.51,3.51,0,1,1,3.5-3.51A3.51,3.51,0,0,1,262.06,384.54Zm0-4.12a.61.61,0,0,0-.62.61c0,.68,1.23.68,1.23,0A.61.61,0,0,0,262.06,380.42Z" transform="translate(312.92 -239.51)"/><path class="cls-2" d="M307.46,395.2a5.17,5.17,0,1,1,4.77-5.15A5,5,0,0,1,307.46,395.2Zm0-7.41a2.3,2.3,0,1,0,1.88,2.26A2.09,2.09,0,0,0,307.46,387.79Z" transform="translate(312.92 -239.51)"/><path class="cls-2" d="M296,382.73a3.53,3.53,0,1,1,3.53-3.53A3.53,3.53,0,0,1,296,382.73Zm0-4.16a.63.63,0,0,0-.63.63c0,.7,1.27.7,1.27,0A.64.64,0,0,0,296,378.57Z" transform="translate(312.92 -239.51)"/><path class="cls-2" d="M291.7,407.78c-2,0-3.62-2.16-3.62-4.9s1.59-4.9,3.62-4.9,3.62,2.15,3.62,4.9S293.73,407.78,291.7,407.78Zm0-6.91a2.49,2.49,0,0,0-.71,2,2.37,2.37,0,0,0,.73,2,2.41,2.41,0,0,0,.72-2A2.36,2.36,0,0,0,291.69,400.87Z" transform="translate(312.92 -239.51)"/><path class="cls-2" d="M281.3,424.33a2.78,2.78,0,1,1,2.77-2.78A2.79,2.79,0,0,1,281.3,424.33Zm0-2.9.12.12A.13.13,0,0,0,281.3,421.43Z" transform="translate(312.92 -239.51)"/><path class="cls-2" d="M270.85,444.52a2.6,2.6,0,1,1,2.6-2.6A2.61,2.61,0,0,1,270.85,444.52Zm0-2.89a.29.29,0,0,0-.29.29c0,.33.59.33.59,0A.3.3,0,0,0,270.85,441.63Z" transform="translate(312.92 -239.51)"/><path class="cls-2" d="M325.35,421.67a2.29,2.29,0,1,1,2.28-2.28A2.28,2.28,0,0,1,325.35,421.67Zm0-2.89a.61.61,0,0,0-.61.61c0,.67,1.22.67,1.22,0A.61.61,0,0,0,325.35,418.78Z" transform="translate(312.92 -239.51)"/><path class="cls-2" d="M350.76,387.06c-2.53,0-4.5-1.54-4.5-3.52s2-3.51,4.5-3.51,4.5,1.54,4.5,3.51S353.28,387.06,350.76,387.06Zm-1.61-3.52a1.87,1.87,0,0,0,1.61.63,1.82,1.82,0,0,0,1.6-.63,1.84,1.84,0,0,0-1.6-.61C349.73,382.93,349.19,383.39,349.15,383.54Z" transform="translate(312.92 -239.51)"/><path class="cls-2" d="M324.31,380.65a2.49,2.49,0,1,1,2.49-2.49A2.5,2.5,0,0,1,324.31,380.65Zm0-2.89a.41.41,0,0,0-.41.4c0,.45.82.45.82,0A.41.41,0,0,0,324.31,377.76Z" transform="translate(312.92 -239.51)"/><path class="cls-2" d="M373.35,387.79a2.63,2.63,0,1,1,2.62-2.63A2.62,2.62,0,0,1,373.35,387.79Zm0-2.9a.27.27,0,0,0-.27.27c0,.29.54.3.54,0A.27.27,0,0,0,373.35,384.89Z" transform="translate(312.92 -239.51)"/><path class="cls-2" d="M334.72,385a2.48,2.48,0,1,1,2.47-2.48A2.49,2.49,0,0,1,334.72,385Zm0-2.89a.41.41,0,0,0-.42.41c0,.46.83.46.83,0A.41.41,0,0,0,334.72,382.1Z" transform="translate(312.92 -239.51)"/><path class="cls-2" d="M312.53,410.91a2.35,2.35,0,1,1,2.35-2.35A2.35,2.35,0,0,1,312.53,410.91Zm0-2.89a.54.54,0,0,0-.54.54c0,.6,1.08.6,1.08,0A.54.54,0,0,0,312.53,408Z" transform="translate(312.92 -239.51)"/><path class="cls-2" d="M245.19,380.65a2,2,0,1,1,2-2A2,2,0,0,1,245.19,380.65Zm0-2.89a.93.93,0,1,0,.92.92A.93.93,0,0,0,245.19,377.76Z" transform="translate(312.92 -239.51)"/><path class="cls-2" d="M264.91,460.32a1.9,1.9,0,1,1,1.9-1.9A1.9,1.9,0,0,1,264.91,460.32Zm0-2.89a1,1,0,1,0,1,1A1,1,0,0,0,264.91,457.43Z" transform="translate(312.92 -239.51)"/><path class="cls-2" d="M340.44,449.78a2.66,2.66,0,1,1,2.66-2.66A2.66,2.66,0,0,1,340.44,449.78Zm0-2.9a.23.23,0,0,0-.23.24c0,.26.47.26.47,0A.24.24,0,0,0,340.44,446.88Z" transform="translate(312.92 -239.51)"/><ellipse class="cls-2" cx="643.49" cy="187.8" rx="2.38" ry="3.31"/><path class="cls-2" d="M290.62,371.17a2.54,2.54,0,1,1,2.53-2.53A2.54,2.54,0,0,1,290.62,371.17Zm0-2.9a.37.37,0,0,0-.36.37c0,.4.72.4.72,0A.37.37,0,0,0,290.62,368.27Z" transform="translate(312.92 -239.51)"/></g></svg>