<svg xmlns="http://www.w3.org/2000/svg" viewBox="0 0 310.06 170.66"><defs><style>.cls-1{fill:#fff;}.cls-2{fill:#f26522;}</style></defs><g id="Layer_2" data-name="Layer 2"><path class="cls-1" d="M102.59,111.32l.6-45.65A14.66,14.66,0,0,1,107.79,55a14.5,14.5,0,0,1,10.82-4.32l60.86.8-.8,60.86-15.22-.2.2-15.21L118,96.3l30.63-14.81,15.21.2.2-15.21-45.64-.61-.6,45.65Z" transform="translate(-2.81 -3)"/><path class="cls-1" d="M182.17,112.44l-.46-60.87,60.86-.46a15.33,15.33,0,0,1,15.33,15.1L258.08,89l-15.22.11,15.27,7.5.12,15.21-61.1-30,.23,30.43Zm60.58-38.5-.06-7.61L197,66.68l.06,7.6Z" transform="translate(-2.81 -3)"/><path class="cls-1" d="M6.91,172.77l.15-41.09A13.17,13.17,0,0,1,11.11,122a13.05,13.05,0,0,1,9.69-4l54.78.2L48.14,131.83l-27.39-.1,0,6.85,41.08.15-.05,13.69-41.08-.15-.08,20.55Z" transform="translate(-2.81 -3)"/><path class="cls-1" d="M84.63,145.66l.1-27.39,13.69,0-.2,54.78Z" transform="translate(-2.81 -3)"/><path class="cls-1" d="M107.37,173.13l27.44-13.59,27.39.1,0-6.85-54.78-.2.07-20.54a13.71,13.71,0,0,1,13.75-13.65l54.78.2-27.44,13.6-27.39-.1,0,6.84,54.78.2-.07,20.55a13.69,13.69,0,0,1-13.75,13.64Z" transform="translate(-2.81 -3)"/><path class="cls-1" d="M185.19,118.63l13.7.05-.08,20.55,44.51.16,10.35-20.51-.2,54.78-13.7,0,.08-20.54-44.51-.16L185,173.41Z" transform="translate(-2.81 -3)"/><path class="cls-1" d="M68.4,45.94l15.94.25L85,3,101,3.25l-1.67,108L83.34,111,84,67.78l-47.82-.73Z" transform="translate(-2.81 -3)"/><path class="cls-1" d="M2.81,111.32,23.7,96.25l20.79.15,0-7.61L3,88.5l.16-22.83A18.58,18.58,0,0,1,6.26,54.94q3-4.44,7.38-4.41l41.57.3L34.31,65.9l-20.78-.15,0,7.61L55,73.65l-.16,22.83a18.51,18.51,0,0,1-3.16,10.79c-2,2.92-4.47,4.37-7.34,4.35Z" transform="translate(-2.81 -3)"/><path class="cls-2" d="M279.72,89.65l.24-.38v0l-.51.13.08-.21.43.07-.43-.07.12-.34.61,0,.15.34h0l.09.2-.49-.08.23.38-.25-.35Zm.24-.4h0Z" transform="translate(-2.81 -3)"/><path class="cls-2" d="M275.24,103.94" transform="translate(-2.81 -3)"/><path class="cls-2" d="M246.43,115.65c.68-.28,1.36-.54,2-.77s1.38-.43,2.09-.63a21.36,21.36,0,0,1,4.39-.67h.1a34.76,34.76,0,0,1,5.36.55,21.15,21.15,0,0,0,5.25.49h.08a11.4,11.4,0,0,0,2.72.06,2.45,2.45,0,0,0,1.87-1.27l0,0c.95-2.13,1.66-4.35,2.52-6.48s1.51-4.33,2.26-6.49l2.3-6.52c.78-2.18,1.54-4.39,2.47-6.6a.14.14,0,0,1,.2-.08.13.13,0,0,1,.09.13,37,37,0,0,1-.39,7.14,41.83,41.83,0,0,1-1.62,7,46.52,46.52,0,0,1-2.84,6.57,42.55,42.55,0,0,1-3.87,6l0,0a4.24,4.24,0,0,1-1.28,1,4.46,4.46,0,0,1-1.51.43c-1,.11-2,0-2.85,0h.07a33.41,33.41,0,0,1-5.53.83,28.62,28.62,0,0,1-5.43-.32h.1c-1.35-.06-2.73-.07-4.15,0-.71,0-1.42,0-2.15,0a20.45,20.45,0,0,1-2.19-.14.16.16,0,0,1-.13-.17A.14.14,0,0,1,246.43,115.65Z" transform="translate(-2.81 -3)"/><path class="cls-2" d="M261.8,155a1.38,1.38,0,0,1-.08,1,4,4,0,0,1-.46.78c-.35.46-.77.89-1.09,1.24a.75.75,0,0,1-1.25-.76L259,157c.24-.69.5-1.38.78-2.05a1,1,0,0,1,1.92.69l-.08.23a9.52,9.52,0,0,1-.93,2.15l-1.88-1.52c-.11.11,0,0,0-.06l.15-.26a3.79,3.79,0,0,1,.5-.7l-.31.49c.51-1.73.85-3.51,1.39-5.31s1.11-3.65,1.53-5.52.74-3.76,1.21-5.67a14.35,14.35,0,0,1,.38-1.43c.13-.48.31-.95.48-1.42a16.57,16.57,0,0,1,1.35-2.71,32.38,32.38,0,0,0,2.61-4.73,6.71,6.71,0,0,0,.52-4.36,2.13,2.13,0,0,0-.18-.5,2.58,2.58,0,0,0-.23-.51l-.29-.5c-.11-.14-.2-.29-.31-.41a4.93,4.93,0,0,0-1.87-1.29c-1.57-.69-3.55-1-5.33-1.91a.15.15,0,0,1-.07-.21.16.16,0,0,1,.14-.08,32.38,32.38,0,0,1,5.87.15,6.75,6.75,0,0,1,3.11,1.39,6.44,6.44,0,0,1,.64.64l.53.66a4.15,4.15,0,0,1,.47.73,4,4,0,0,1,.39.8,6.82,6.82,0,0,1,.45,3.53,9.74,9.74,0,0,1-1,3.16,26.76,26.76,0,0,1-3.38,4.93,25.12,25.12,0,0,0-1.66,2.14,16.31,16.31,0,0,0-1.38,2.37,16.91,16.91,0,0,0-1.47,5.4c-.21,1.87-.09,3.8-.21,5.74a18,18,0,0,1-1.27,5.76l-.2.49a.06.06,0,0,1-.07,0s0,0,0,0a1.19,1.19,0,0,0-.21.24l-.16.23a3.71,3.71,0,0,1-.34.42l0,0a1.21,1.21,0,0,1-1.71.08,1.22,1.22,0,0,1-.13-1.65,13.58,13.58,0,0,0,1.05-1.61l1.84.92c-.37.58-.78,1.15-1.2,1.72l-1.18-.94c.51-.32,1-.51,1.38-.78s.84-.54.94-1v0a.15.15,0,0,1,.18-.11A.18.18,0,0,1,261.8,155Z" transform="translate(-2.81 -3)"/><path class="cls-2" d="M279.56,131.74c-1.47-.23-2.23.61-3.09,1.54s-1.65,2.12-2.55,3.16-2,2-3,3a12.67,12.67,0,0,0-2.53,3.39,27.57,27.57,0,0,0-1.58,4c-.46,1.33-1,2.6-1.5,3.91a30.9,30.9,0,0,1-1.64,4,9.29,9.29,0,0,1-3.22,3.63l-.21.12a1.16,1.16,0,0,1-1.51-1.72,3.63,3.63,0,0,1,1.19-1l.31-.16a1,1,0,0,1,1.32.43,1,1,0,0,1-.28,1.24c-.34.25-.67.5-1,.73l-.23.15a.79.79,0,0,1-1.08-.22.81.81,0,0,1,0-.87,6.56,6.56,0,0,1,1.94-2.14.15.15,0,0,1,.21,0,.16.16,0,0,1,0,.15h0a12.82,12.82,0,0,0-.64,2.58l-1.3-.93c.18-.3.37-.57.56-.84l1.34,1.51a2.32,2.32,0,0,0-.37.61l-1.72-1.6c1.6-1.71,2.13-4.34,3.6-7a29.15,29.15,0,0,1,2.26-3.75c.87-1.17,1.85-2.27,2.69-3.43a22.16,22.16,0,0,0,2.22-3.69,20.38,20.38,0,0,1,2.13-3.82,16.16,16.16,0,0,1,3.21-3.12,5.42,5.42,0,0,1,2.32-1,2.63,2.63,0,0,1,2.34.82.16.16,0,0,1-.15.26Z" transform="translate(-2.81 -3)"/><path class="cls-2" d="M284,122a22.59,22.59,0,0,1,6.11,7.08,24.76,24.76,0,0,1,2,4.24,37.37,37.37,0,0,1,1.14,4.52c.32,1.52.66,3,1.09,4.48a18.69,18.69,0,0,0,1.66,4.18,10.38,10.38,0,0,0,1.25,1.72c.45.49,1,.93,1.59,1.49a7.78,7.78,0,0,1,1.65,2.11,4,4,0,0,1,.45,1.62,4.1,4.1,0,0,1-.32,1.77,1.37,1.37,0,0,1-1.78.77h0l-.15-.06a8.88,8.88,0,0,1-4.25-4.15,21.17,21.17,0,0,1-1.08-2.4l-1-2.26c-.67-1.5-1.38-3-2.17-4.43s-1.65-2.87-2.6-4.3a.16.16,0,0,1,0-.22.17.17,0,0,1,.17,0,18.9,18.9,0,0,1,4,3.4,28.57,28.57,0,0,1,3.12,4.22c.94,1.45,1.67,3.17,2.36,4.46a7,7,0,0,0,2.66,3L298,154a1.1,1.1,0,0,0,.06-1,7.15,7.15,0,0,0-1-1.61,17.62,17.62,0,0,1-1.37-2,12,12,0,0,1-1-2.26c-.5-1.52-.81-3-1.23-4.49a24.82,24.82,0,0,0-1.65-4.24l-2.09-4c-.67-1.33-1.25-2.7-1.88-4-1.25-2.7-2.62-5.31-4-8.08a.16.16,0,0,1,.06-.21A.15.15,0,0,1,284,122Z" transform="translate(-2.81 -3)"/><path class="cls-2" d="M312.84,118.86a8.09,8.09,0,0,1-1.44,1.31,11.65,11.65,0,0,1-1.64,1,9.75,9.75,0,0,1-3.62.94,17,17,0,0,1-1.89-.16,10.67,10.67,0,0,0-1.85-.16,14.06,14.06,0,0,0-3.62.47c-.6.13-1.21.29-1.81.38s-1.21.13-1.82.18a27.22,27.22,0,0,1-3.61.06,28,28,0,0,1-7.11-1.49.16.16,0,0,1-.1-.21.18.18,0,0,1,.08-.09,18.4,18.4,0,0,1,7.24-1.41,30.68,30.68,0,0,1,3.58.3,26.09,26.09,0,0,1,3.54.64,13.71,13.71,0,0,0,1.78.28,7.37,7.37,0,0,0,3.5-.59c.56-.24,1.11-.48,1.67-.67a8.08,8.08,0,0,1,1.66-.42,16.28,16.28,0,0,1,1.7-.28,14.12,14.12,0,0,1,1.76-.21,10.24,10.24,0,0,1,1.87-.09h0a.18.18,0,0,1,.16.18A.25.25,0,0,1,312.84,118.86Z" transform="translate(-2.81 -3)"/><path class="cls-2" d="M279.83,87.74l0-.36a.22.22,0,0,1,.2-.24.22.22,0,0,1,.23.17l0,.08a51.77,51.77,0,0,1,1.21,6.7,63.63,63.63,0,0,1,.48,6.81c-.05,2.43-.84,4.62-1.27,6.8a10.85,10.85,0,0,0,.43,6.44l0-.07a1.35,1.35,0,0,0,1.12.34l-.23,0a32.06,32.06,0,0,1,3.77-1.47,14.41,14.41,0,0,1,4.17-.62,13.4,13.4,0,0,1,2.17.17,8.69,8.69,0,0,1,1.05.23l1,.25c1.28.33,2.53.69,3.77,1.09,2.46.78,4.85,1.62,7.29,2.21,1.22.29,2.45.53,3.7.7a34.71,34.71,0,0,0,3.86.21.15.15,0,0,1,.15.15.13.13,0,0,1-.09.14,17.3,17.3,0,0,1-8,1.18,37.25,37.25,0,0,1-7.88-1.52c-1.25-.37-2.49-.78-3.7-1.2a13.31,13.31,0,0,0-3.44-.85,25.17,25.17,0,0,0-7.36.69l-.15,0h-.08a3,3,0,0,1-1.17-.35,2,2,0,0,1-.94-.93l0,0v0a25.49,25.49,0,0,1-.64-6.93c0-2.3,0-4.57-.12-6.65s-.15-4.47-.09-6.7a52.34,52.34,0,0,1,.6-6.8h.45l-.12.33a.17.17,0,0,1-.2.1A.19.19,0,0,1,279.83,87.74Z" transform="translate(-2.81 -3)"/><path class="cls-2" d="M264.88,120.73c-3.2-.63-6.34-1.47-9.48-2.29-1.57-.4-3.14-.82-4.73-1.1a27.55,27.55,0,0,1-4.76-1,27.47,27.47,0,0,0,4.78.83c1.62.22,3.19.63,4.78,1,3.16.75,6.31,1.52,9.49,2.07a.25.25,0,1,1-.08.49Z" transform="translate(-2.81 -3)"/><ellipse class="cls-2" cx="276.38" cy="97.8" rx="0.94" ry="1.28"/><path class="cls-2" d="M276.17,107.14a1.43,1.43,0,1,1,1.43-1.42A1.43,1.43,0,0,1,276.17,107.14Zm0-1.85a.43.43,0,1,0,0,.85.43.43,0,1,0,0-.85Z" transform="translate(-2.81 -3)"/><path class="cls-2" d="M278.13,111.58a1.12,1.12,0,1,1,1.12-1.12A1.12,1.12,0,0,1,278.13,111.58Zm0-1.24a.12.12,0,0,0-.12.12c0,.13.24.13.24,0A.12.12,0,0,0,278.13,110.34Z" transform="translate(-2.81 -3)"/><path class="cls-2" d="M278.73,106.22a1,1,0,1,1,1-1A1,1,0,0,1,278.73,106.22Zm0-1,0,0S278.75,105.22,278.73,105.22Z" transform="translate(-2.81 -3)"/><ellipse class="cls-2" cx="268.04" cy="114.86" rx="0.96" ry="1.37"/><path class="cls-2" d="M264.21,118.92a1.21,1.21,0,1,1,1.21-1.21A1.21,1.21,0,0,1,264.21,118.92Zm0-1.42a.21.21,0,0,0-.21.21c0,.23.42.23.42,0A.21.21,0,0,0,264.21,117.5Z" transform="translate(-2.81 -3)"/><path class="cls-2" d="M279.9,122.6a1.79,1.79,0,1,1,1.64-1.78A1.72,1.72,0,0,1,279.9,122.6Zm0-2.56a.8.8,0,1,0,.64.78A.72.72,0,0,0,279.9,120Z" transform="translate(-2.81 -3)"/><path class="cls-2" d="M275.92,118.3a1.22,1.22,0,1,1,1.22-1.22A1.22,1.22,0,0,1,275.92,118.3Zm0-1.44a.22.22,0,0,0-.22.22c0,.24.44.24.44,0A.22.22,0,0,0,275.92,116.86Z" transform="translate(-2.81 -3)"/><path class="cls-2" d="M274.45,127c-.7,0-1.25-.74-1.25-1.69s.55-1.7,1.25-1.7,1.25.75,1.25,1.7S275.15,127,274.45,127Zm0-2.39a.85.85,0,0,0-.25.7.8.8,0,0,0,.26.69.88.88,0,0,0,.24-.69A.85.85,0,0,0,274.45,124.56Z" transform="translate(-2.81 -3)"/><path class="cls-2" d="M270.86,132.67a1,1,0,1,1,1-1A1,1,0,0,1,270.86,132.67Zm0-1,0,0A0,0,0,0,0,270.86,131.67Z" transform="translate(-2.81 -3)"/><path class="cls-2" d="M267.25,139.64a.9.9,0,1,1,.89-.89A.89.89,0,0,1,267.25,139.64Zm0-1a.11.11,0,0,0-.11.11c0,.11.21.11.21,0A.11.11,0,0,0,267.25,138.64Z" transform="translate(-2.81 -3)"/><path class="cls-2" d="M286.08,131.75a.79.79,0,1,1,.79-.79A.79.79,0,0,1,286.08,131.75Zm0-1a.21.21,0,0,0-.21.21c0,.23.42.23.42,0A.21.21,0,0,0,286.08,130.75Z" transform="translate(-2.81 -3)"/><path class="cls-2" d="M294.86,119.79c-.88,0-1.56-.53-1.56-1.21a1.6,1.6,0,1,1,1.56,1.21Zm-.56-1.21a.66.66,0,0,0,.56.21c.35,0,.54-.16.55-.21a.62.62,0,0,0-.55-.22C294.5,118.36,294.32,118.52,294.3,118.58Z" transform="translate(-2.81 -3)"/><path class="cls-2" d="M285.72,117.58a.86.86,0,1,1,.86-.86A.86.86,0,0,1,285.72,117.58Zm0-1a.14.14,0,0,0-.14.14c0,.15.28.15.28,0A.14.14,0,0,0,285.72,116.58Z" transform="translate(-2.81 -3)"/><path class="cls-2" d="M302.66,120a.91.91,0,0,1,0-1.81.91.91,0,1,1,0,1.81Zm0-1a.09.09,0,0,0-.09.1c0,.1.18.1.19,0A.1.1,0,0,0,302.66,119Z" transform="translate(-2.81 -3)"/><path class="cls-2" d="M289.31,119.08a.86.86,0,1,1,.86-.86A.86.86,0,0,1,289.31,119.08Zm0-1a.14.14,0,0,0-.14.14c0,.16.29.16.29,0A.15.15,0,0,0,289.31,118.08Z" transform="translate(-2.81 -3)"/><path class="cls-2" d="M281.65,128a.81.81,0,1,1,.81-.81A.81.81,0,0,1,281.65,128Zm0-1a.2.2,0,0,0-.19.19c0,.21.38.21.38,0A.2.2,0,0,0,281.65,127Z" transform="translate(-2.81 -3)"/><path class="cls-2" d="M258.38,117.58a.68.68,0,1,1,.68-.68A.68.68,0,0,1,258.38,117.58Zm0-1a.32.32,0,0,0-.32.32.32.32,0,1,0,.64,0A.32.32,0,0,0,258.38,116.58Z" transform="translate(-2.81 -3)"/><path class="cls-2" d="M265.19,145.11a.66.66,0,0,1,0-1.32.66.66,0,0,1,0,1.32Zm0-1a.34.34,0,1,0,0,.68.34.34,0,1,0,0-.68Z" transform="translate(-2.81 -3)"/><path class="cls-2" d="M291.29,141.46a.92.92,0,1,1,.92-.92A.92.92,0,0,1,291.29,141.46Zm0-1a.09.09,0,0,0-.08.08c0,.09.16.09.16,0A.08.08,0,0,0,291.29,140.46Z" transform="translate(-2.81 -3)"/><ellipse class="cls-2" cx="285.07" cy="130.7" rx="0.82" ry="1.14"/><path class="cls-2" d="M274.08,114.3a.88.88,0,1,1,.87-.88A.87.87,0,0,1,274.08,114.3Zm0-1a.13.13,0,0,0-.13.12c0,.14.25.14.25,0A.12.12,0,0,0,274.08,113.3Z" transform="translate(-2.81 -3)"/></g></svg>